# xmcd
#
# Track frame offsets: 
#        150
#        18515
#        42967
#        69412
#        87080
#        116504
#        134038
#        159739
#        181657
#        200279
#        221296
#        238038
#        251116
#        269800
#        287617
#        307970
#        327764
#
# Disc length: 4781 seconds
#
# Revision: 0
# Processed by: cddbd v1.5.2PL0 Copyright (c) Steve Scherf et al.
# Submitted via: ExactAudioCopy v0.95a5
#
DISCID=f412ab11
DTITLE=Various Artist - Blues-Rock Now!!! Box4 CD2
DYEAR=2007
DGENRE=Rock
TTITLE0=Come On , Don't Walk, Run! - GWYN ASHTON
TTITLE1=Bird On A Wire - RHINO BUCKET
TTITLE2=So tired of living - INNES SIBUN
TTITLE3=Freedom Train - WILD T and The SPIRIT
TTITLE4=Gamblers Roll - HANK DAVISON BAND
TTITLE5=Sweet Meat - ROSE TATTOO
TTITLE6=Cratch and Gone - FROM BEHIND
TTITLE7=Back From Yesterday - CORBY YATES
TTITLE8=Bad Man Walking - GOV'T MULE
TTITLE9=I'm Dreaming Again-THUNDER
TTITLE10=Boot State - DANNY JOHNSON
TTITLE11=Fight for Your Right (To Party) - TONY C. and The TRUTH
TTITLE12=Train Train - BUDDAH HEADS
TTITLE13=Huckle Up Baby - GEORGE THOROGOOD
TTITLE14=Going Back Home - DANNY  BRYANT
TTITLE15=Don't Come Crying To Me - THUNDERHAWKS
TTITLE16=Reconsider - JOE BONAMASSA
EXTD=
EXTT0=
EXTT1=
EXTT2=
EXTT3=
EXTT4=
EXTT5=
EXTT6=
EXTT7=
EXTT8=
EXTT9=
EXTT10=
EXTT11=
EXTT12=
EXTT13=
EXTT14=
EXTT15=
EXTT16=
PLAYORDER=
